<?xml version="1.0" encoding="utf-8"?>
<!-- Generator: Adobe Illustrator 16.0.0, SVG Export Plug-In . SVG Version: 6.00 Build 0)  -->
<!DOCTYPE svg PUBLIC "-//W3C//DTD SVG 1.1//EN" "http://www.w3.org/Graphics/SVG/1.1/DTD/svg11.dtd">
<svg version="1.1" id="Calque_1" xmlns="http://www.w3.org/2000/svg" xmlns:xlink="http://www.w3.org/1999/xlink" x="0px" y="0px"
	 width="207px" height="60px" viewBox="0 0 207 60" enable-background="new 0 0 207 60" xml:space="preserve">
<rect x="8" y="37" fill="#FFFFFF" stroke="#716259" stroke-width="2" stroke-miterlimit="10" width="4" height="8"/>
<rect x="15" y="37" fill="#FFFFFF" stroke="#716259" stroke-width="2" stroke-miterlimit="10" width="4" height="8"/>
<rect x="22" y="37" fill="#FFFFFF" stroke="#716259" stroke-width="2" stroke-miterlimit="10" width="4" height="8"/>
<rect x="29" y="37" fill="#FFFFFF" stroke="#716259" stroke-width="2" stroke-miterlimit="10" width="4" height="8"/>
<rect x="36" y="37" fill="#FFFFFF" stroke="#716259" stroke-width="2" stroke-miterlimit="10" width="4" height="8"/>
<polygon fill="#FFFFFF" stroke="#716259" stroke-width="2" stroke-miterlimit="10" points="32,31 34,15 38,15 40,31 "/>
<polygon fill="#FFFFFF" stroke="#716259" stroke-width="2" stroke-linejoin="bevel" stroke-miterlimit="10" points="7,31 17,25 
	27,31 "/>
<line fill="none" stroke="#716259" stroke-width="2" stroke-linejoin="round" stroke-miterlimit="10" x1="7" y1="34" x2="41" y2="34"/>
<line fill="none" stroke="#716259" stroke-width="2" stroke-linejoin="round" stroke-miterlimit="10" x1="7" y1="48" x2="41" y2="48"/>
<line fill="none" stroke="#716259" stroke-width="2" stroke-linejoin="round" stroke-miterlimit="10" x1="5" y1="51" x2="45" y2="51"/>
<line fill="none" stroke="#716259" stroke-width="2" stroke-linejoin="round" stroke-miterlimit="10" x1="5" y1="54" x2="57" y2="54"/>
<g>
	<path d="M70.32,14.523v10.982h5.374l-0.083,1.276H68.86V14.523H70.32z"/>
	<path d="M83.536,22.902h-4.871l-1.46,3.879h-1.478l4.567-12.258h1.746l4.316,12.258H84.88L83.536,22.902z M83.049,21.777
		l-1.864-5.844l-2.063,5.844H83.049z"/>
	<path d="M97.655,21.088h-5.055v5.693h-1.444V14.523h6.783l-0.117,1.258h-5.222v4.132h5.055V21.088z"/>
	<path d="M106.2,22.902h-4.869l-1.461,3.879h-1.479l4.567-12.258h1.749l4.313,12.258h-1.477L106.2,22.902z M105.713,21.777
		l-1.863-5.844l-2.065,5.844H105.713z"/>
	<path d="M110.279,14.523h3.576c2.957,0,4.651,0.822,4.651,2.989c0,1.175-0.502,2.3-1.744,2.703
		c1.543,0.336,2.249,1.765,2.249,3.073c0,2.149-1.26,3.493-4.45,3.493h-4.282V14.523z M111.723,19.812h2.906
		c1.143,0,2.367-0.286,2.367-2.015c0-1.848-1.359-2.1-3.359-2.1h-1.914V19.812z M111.723,25.64h2.57
		c2.133,0,3.239-0.723,3.239-2.368c0-1.545-0.988-2.368-2.82-2.368h-2.989V25.64z"/>
	<path d="M128.38,26.781l-1.663-3.812c-0.318-0.722-0.621-1.411-0.873-1.831c-0.234,0.018-1.126,0.035-1.409,0.035
		c-0.151,0-2.184-0.067-2.184-0.067v5.676h-1.445V14.523h3.88c2.923,0,4.771,0.419,4.771,3.191c0,1.51-0.74,2.703-2.318,3.123
		c-0.019,0,0.62,1.042,0.905,1.663l1.983,4.282H128.38z M122.251,19.879l2.922,0.034c2.217,0.017,2.854-0.705,2.854-2.167
		c0-1.276-0.637-1.965-2.518-1.965h-3.258V19.879z"/>
	<path d="M133.347,26.781h-1.442V14.523h1.442V26.781z"/>
	<path d="M135.53,20.668c0-3.812,2.199-6.398,5.995-6.398s5.979,2.586,5.979,6.398c0,3.595-2.05,6.298-5.979,6.298
		C137.596,26.967,135.53,24.263,135.53,20.668z M137.093,20.668c0,2.821,1.343,5.055,4.433,5.055s4.416-2.233,4.416-5.055
		c0-3.057-1.461-5.137-4.416-5.137C138.568,15.531,137.093,17.579,137.093,20.668z M142.449,26.916c0.017,0,1.058-0.537,1.377-0.353
		c0.537,1.193,1.998,2.854,2.25,3.089l-0.956,0.975C144.8,30.308,143.155,28.342,142.449,26.916z"/>
	<path d="M149.348,22.5v-7.977h1.443v7.926c0,2.402,0.939,3.308,3.158,3.308c2.199,0,3.156-0.906,3.156-3.308v-7.926h1.444V22.5
		c0,2.636-1.024,4.467-4.601,4.467C150.389,26.967,149.348,25.135,149.348,22.5z"/>
	<path d="M167.749,21.105h-5.441v4.399h6.029l-0.135,1.276h-7.338V14.523h7.22l-0.101,1.258h-5.676v4.064h5.441V21.105z"/>
	<path d="M68.86,33.286h3.04c4.231,0,7.321,1.478,7.321,6.216c0,4.078-2.619,6.045-6.482,6.045H68.86V33.286z M70.305,44.27h2.586
		c3.007,0,4.785-1.562,4.785-4.737c0-3.861-2.232-4.985-5.591-4.985h-1.78V44.27z"/>
	<path d="M88.119,39.87H82.68v4.399h6.026l-0.135,1.277h-7.338V33.286h7.221l-0.1,1.261H82.68v4.062h5.439V39.87z"/>
	<path d="M95.64,33.286V44.27h5.374l-0.085,1.277h-6.75V33.286H95.64z"/>
	<path d="M108.853,41.667h-4.868l-1.462,3.88h-1.478l4.567-12.261h1.747l4.314,12.261h-1.476L108.853,41.667z M108.367,40.543
		l-1.863-5.846l-2.066,5.846H108.367z"/>
	<path d="M117.936,33.286V44.27h5.374l-0.084,1.277h-6.752V33.286H117.936z"/>
	<path d="M124.098,39.433c0-3.811,2.199-6.397,5.994-6.397s5.978,2.587,5.978,6.397c0,3.595-2.048,6.297-5.978,6.297
		C126.164,45.729,124.098,43.027,124.098,39.433z M125.657,39.433c0,2.822,1.343,5.057,4.435,5.057c3.09,0,4.416-2.234,4.416-5.057
		c0-3.056-1.461-5.139-4.416-5.139C127.136,34.294,125.657,36.344,125.657,39.433z"/>
	<path d="M139.66,45.547h-1.442V33.286h1.442V45.547z"/>
</g>
<line fill="none" stroke="#716259" stroke-width="2" stroke-linejoin="round" stroke-miterlimit="10" x1="48" y1="45" x2="57" y2="45"/>
<line fill="none" stroke="#716259" stroke-width="2" stroke-linejoin="round" stroke-miterlimit="10" x1="48" y1="48" x2="57" y2="48"/>
<line fill="none" stroke="#716259" stroke-width="2" stroke-linejoin="round" stroke-miterlimit="10" x1="48" y1="51" x2="57" y2="51"/>
<path fill="none" stroke="#716259" stroke-width="2" stroke-linejoin="round" stroke-miterlimit="10" d="M49.25,3
	c-3.089,0-5.592,2.504-5.592,5.592c0,0.014,0.002,0.027,0.002,0.042c-0.135-0.019-0.27-0.042-0.41-0.042c-1.657,0-3,1.343-3,3
	s1.343,3,3,3c1.131,0,2.104-0.633,2.614-1.557c0.94,0.717,2.111,1.148,3.386,1.148c3.089,0,5.592-2.504,5.592-5.592
	S52.339,3,49.25,3z"/>
</svg>
